<mxfile host="app.diagrams.net" modified="2023-05-24T11:10:52.850Z" agent="Mozilla/5.0 (Macintosh; Intel Mac OS X 10_15_7) AppleWebKit/537.36 (KHTML, like Gecko) Chrome/113.0.0.0 Safari/537.36" version="21.3.3" etag="I0BsnZPx3GGBxe4j8UG8" type="github">
  <diagram name="第 1 页" id="0gkQoOxgQt4wBfiU67CS">
    <mxGraphModel>
      <root>
        <mxCell id="0" />
        <mxCell id="1" parent="0" />
      </root>
    </mxGraphModel>
  </diagram>
</mxfile>
